# xmcd
#
# Track frame offsets:
#	150
#	19050
#	34107
#	47975
#	67435
#	82465
#	98285
#	115455
#	128315
#	145685
#	162375
#	178122
#	193007
#	209770
#	228132
#	242397
# Disc length: 3428 seconds
# Revision: 1
# Processed by: cddbd v1.5.2PL0 Copyright (c) Steve Scherf et al.
#
# Submitted via: libkcddb 0.31
#
DISCID=e10d6210
DTITLE=Boi Pirilampo - Boi Pirilampo Arte Popular do Maranhão
DYEAR=1900
DGENRE=Sertanejo
TTITLE0=Oberdan Oliveira - Madrinha Lua
TTITLE1=Zacarias - Estrela Pintada
TTITLE2=Samy - Terreiro de Ninguém
TTITLE3=Escrete - Sonhador
TTITLE4=Zacarias - Nada Vai Mudar
TTITLE5=Escrete - Jardim do Coracão
TTITLE6=Zacarias - Linda Morena
TTITLE7=Zacarias - Abre a Janela
TTITLE8=Zacarias - Da Terra Do Mar Do Ar
TTITLE9=Escrete - Encanto do Anoitecer
TTITLE10=Augusto Bastos - Meiguice
TTITLE11=Zacarias - Boi Luzente
TTITLE12=Zacarias - Querida Saudade
TTITLE13=Augusto Bastos - Boi Bonito
TTITLE14=Samy Do Cavaco - Velha Roseira
TTITLE15=Samy Do Cavaco - Lindo São João
EXTD=
EXTT0=Oberdan Oliveira - J.R. Gonçalves
EXTT1=Augusto Bastos - J.R. Gonçalves
EXTT2=Joãozinho Ribeiro
EXTT3=Escrete - J.R. Gonçalves
EXTT4=Macarra
EXTT5=Escrete - José Raimundo Gonçalves
EXTT6=Oberdan Oliveira - Joberval
EXTT7=Oberdan Oliveira - J.R. Gonçalves
EXTT8=Zé Maria
EXTT9=Zé Carlos Dafé - Ronaldo Queiroz
EXTT10=Augusto Bastor - J.R. Gonçalves
EXTT11=Zé Carlos Da Fé - Antonio José
EXTT12=Escrete - J.R. Gonçalves
EXTT13=Serginho Barreto
EXTT14=Luiz Moraes
EXTT15=Samy Do Cavaco
PLAYORDER=
